<svg width="1000" height="255" viewBox="0 0 1000 255" fill="none" xmlns="http://www.w3.org/2000/svg">
<path d="M147.244 133.845L118.018 92.76L189.6 0H248.899L147.244 133.845Z" fill="white"/>
<path d="M87.5216 49.5569H30.3408L116.747 173.66L147.244 133.846L87.5216 49.5569Z" fill="white"/>
<path d="M155.715 146.552L126.066 185.52L146.316 213.536H203.584L155.715 146.552Z" fill="white"/>
<path d="M105.89 186.791L76.6646 145.705L0 254.984H59.2986L105.89 186.791Z" fill="#E06E2E"/>
<path d="M307.343 79.51H342.435L364.58 169.705H366.158L418.138 79.51H453.23L430.887 213.754H403.286L417.875 126.377H416.692L367.538 213.098H348.678L328.437 126.05H327.32L312.6 213.754H285L307.343 79.51Z" fill="white"/>
<path d="M496.821 215.72C486.525 215.72 478.004 213.535 471.258 209.165C464.511 204.752 459.758 198.634 456.998 190.812C454.281 182.946 453.778 173.791 455.486 163.347C457.151 153.034 460.612 144.01 465.869 136.275C471.126 128.54 477.807 122.532 485.912 118.249C494.017 113.923 503.151 111.76 513.315 111.76C523.567 111.76 532.066 113.967 538.812 118.38C545.559 122.75 550.312 128.868 553.072 136.734C555.832 144.6 556.358 153.755 554.65 164.199C552.941 174.468 549.436 183.47 544.135 191.205C538.834 198.94 532.153 204.97 524.092 209.297C516.031 213.579 506.941 215.72 496.821 215.72ZM499.581 194.089C504.312 194.089 508.496 192.756 512.132 190.091C515.812 187.381 518.857 183.711 521.267 179.079C523.72 174.403 525.428 169.115 526.392 163.216C527.356 157.404 527.422 152.247 526.589 147.746C525.757 143.202 524.005 139.618 521.332 136.996C518.704 134.374 515.089 133.063 510.489 133.063C505.758 133.063 501.552 134.418 497.872 137.127C494.192 139.793 491.147 143.464 488.738 148.14C486.328 152.815 484.642 158.125 483.678 164.068C482.758 169.836 482.692 174.993 483.481 179.537C484.269 184.038 486 187.6 488.672 190.222C491.344 192.8 494.981 194.089 499.581 194.089Z" fill="white"/>
<path d="M562.377 213.754L584.72 79.51H612.714L604.434 129.983H605.223C606.888 127.273 609.122 124.52 611.926 121.723C614.773 118.883 618.256 116.523 622.374 114.644C626.493 112.721 631.377 111.76 637.029 111.76C644.389 111.76 650.851 113.683 656.415 117.528C661.978 121.33 665.987 127.077 668.44 134.768C670.894 142.415 671.157 152.007 669.229 163.544C667.389 174.774 663.994 184.257 659.043 191.992C654.137 199.683 648.244 205.517 641.366 209.493C634.532 213.426 627.281 215.393 619.614 215.393C614.182 215.393 609.713 214.497 606.209 212.705C602.748 210.913 600.053 208.663 598.126 205.954C596.198 203.201 594.818 200.426 593.986 197.629H592.606L589.977 213.754H562.377ZM598.191 163.412C597.228 169.399 597.206 174.621 598.126 179.079C599.089 183.536 600.93 187.01 603.646 189.501C606.406 191.948 610.02 193.172 614.489 193.172C619.089 193.172 623.163 191.926 626.712 189.435C630.304 186.901 633.283 183.405 635.649 178.948C638.014 174.446 639.679 169.268 640.643 163.412C641.563 157.6 641.585 152.488 640.709 148.074C639.833 143.66 638.036 140.208 635.32 137.717C632.604 135.226 628.924 133.981 624.28 133.981C619.768 133.981 615.715 135.183 612.123 137.586C608.574 139.99 605.595 143.398 603.186 147.812C600.82 152.225 599.155 157.426 598.191 163.412Z" fill="white"/>
<path d="M676.776 213.754L693.598 113.071H721.593L704.77 213.754H676.776Z" fill="white"/>
<path d="M774.811 79.51L752.468 213.754H724.474L746.817 79.51H774.811Z" fill="white"/>
<path d="M772.172 213.754L788.995 113.071H816.989L800.166 213.754H772.172Z" fill="white"/>
<path d="M890.382 113.071L886.899 134.047H826.047L829.596 113.071H890.382ZM847.339 88.949H875.333L859.693 182.815C859.255 185.393 859.321 187.403 859.891 188.845C860.46 190.244 861.402 191.227 862.716 191.795C864.074 192.363 865.695 192.647 867.579 192.647C868.893 192.647 870.23 192.538 871.588 192.319C872.946 192.057 873.975 191.861 874.676 191.73L875.728 212.508C874.151 212.989 872.026 213.514 869.353 214.082C866.725 214.65 863.614 214.999 860.022 215.13C853.188 215.393 847.405 214.497 842.673 212.443C837.942 210.345 834.547 207.133 832.487 202.807C830.428 198.481 829.99 193.04 831.173 186.486L847.339 88.949Z" fill="white"/>
<path d="M900.179 251.51C896.587 251.51 893.301 251.226 890.322 250.658C887.343 250.133 884.89 249.456 882.962 248.626L892.819 227.781C895.93 228.786 898.756 229.311 901.297 229.355C903.881 229.398 906.247 228.743 908.394 227.388C910.54 226.033 912.512 223.805 914.308 220.702L916.805 216.441L897.879 113.071H926.268L934.811 187.141H935.862L969.311 113.071H1000L942.237 224.635C939.389 230.097 936.016 234.839 932.117 238.859C928.261 242.879 923.683 245.982 918.382 248.167C913.125 250.396 907.058 251.51 900.179 251.51Z" fill="white"/>
<path d="M795.452 95.4077C798.213 98.1426 801.708 99.51 805.939 99.51C810.169 99.51 813.932 98.1426 817.227 95.4077C820.567 92.6294 822.459 89.3302 822.905 85.51C823.35 81.603 822.237 78.3038 819.565 75.6123C816.893 72.8775 813.442 71.51 809.212 71.51C804.981 71.51 801.196 72.8775 797.857 75.6123C794.517 78.3038 792.602 81.603 792.112 85.51C791.622 89.3302 792.736 92.6294 795.452 95.4077Z" fill="#E06E2E"/>
<path d="M699.341 95.4077C702.012 98.1426 705.395 99.51 709.489 99.51C713.583 99.51 717.224 98.1426 720.413 95.4077C723.645 92.6294 725.477 89.3302 725.908 85.51C726.339 81.603 725.261 78.3038 722.676 75.6123C720.09 72.8775 716.75 71.51 712.656 71.51C708.563 71.51 704.9 72.8775 701.668 75.6123C698.436 78.3038 696.583 81.603 696.109 85.51C695.635 89.3302 696.712 92.6294 699.341 95.4077Z" fill="#E06E2E"/>
</svg>
